<?xml version="1.0" encoding="utf-8"?>
<!-- Generator: Adobe Illustrator 19.2.0, SVG Export Plug-In . SVG Version: 6.00 Build 0)  -->
<svg version="1.1" id="Capa_1" xmlns="http://www.w3.org/2000/svg" xmlns:xlink="http://www.w3.org/1999/xlink" x="0px" y="0px"
	 viewBox="0 0 512 512" style="enable-background:new 0 0 512 512;" xml:space="preserve">
<path d="M469.5,387.3l-81.5-40.8c-7.7-3.8-12.5-11.6-12.5-20.2v-28.9c2-2.4,4-5.1,6.1-8.1c10.6-14.9,19-31.6,25.2-49.5
	c12-5.5,19.9-17.4,19.9-30.9v-34.1c0-8.2-3.1-16.2-8.5-22.4v-45.4c0.5-4.7,2.4-32.6-17.9-55.7c-17.5-20-46-30.1-84.5-30.1
	s-67,10.1-84.5,30.1c-12.2,14-16.4,29.7-17.6,41c-14.6-7.6-31.9-11.4-51.4-11.4c-88.7,0-93.8,75.6-93.9,76.8v39.1
	c-5.5,6-8.5,13-8.5,19.9v29.5c0,9.2,4.1,17.8,11.2,23.6c7,26.5,24.4,46.6,31.1,53.6v23.4c0,6.7-3.7,12.9-10,16.3l-56.8,35.6
	C13.5,410.7,0,433.5,0,458.3v32.4h119.5h17.1H512v-34.5C512,426.8,495.7,400.4,469.5,387.3z M119.5,454.5v19.1H17.1v-15.3
	c0-18.5,10.1-35.5,26.8-44.7l56.8-35.6c11.4-6.2,18.4-18.1,18.4-31.1v-30.6l-2.7-2.5c-0.2-0.2-22.9-21.6-29.6-50.8l-0.8-3.4
	l-2.9-1.9c-3.9-2.5-6.3-6.8-6.3-11.4v-29.5c0-3.1,2.1-6.7,5.7-10l2.8-2.5l0-45.9c0.2-2.4,4.6-60.2,76.8-60.2
	c20.4,0,37.6,4.7,51.2,14v40.4c-5.5,6.2-8.5,14.2-8.5,22.4v34.1c0,2.6,0.3,5.1,0.9,7.6c0.2,1,0.7,1.9,1,2.9c0.5,1.4,0.8,2.9,1.5,4.3
	c0,0,0,0,0,0c2.2,4.5,5.4,8.5,9.4,11.8c0,0.2,0.1,0.3,0.1,0.5c0.5,2,1,3.9,1.6,5.8l0.7,2.2c0.1,0.4,0.3,0.8,0.4,1.2
	c0.3,0.9,0.6,1.8,0.9,2.7c0.5,1.5,1,3,1.7,4.7c0.3,0.7,0.6,1.3,0.8,2c0.7,1.8,1.4,3.5,2.1,5.2c0.2,0.4,0.3,0.9,0.5,1.3l0.5,1.1
	c0.2,0.5,0.5,0.9,0.7,1.4c0.8,1.8,1.7,3.6,2.5,5.3c0.1,0.3,0.3,0.6,0.4,0.8c0.5,1.1,1.1,2.1,1.6,3.1c0.9,1.8,1.8,3.4,2.7,5
	c0.4,0.8,0.9,1.6,1.3,2.3c1.2,2.1,2.4,4,3.5,5.8c0.2,0.4,0.5,0.8,0.7,1.2c2.1,3.2,3.9,5.8,5.3,7.8c0.4,0.5,0.7,1,1.1,1.5
	c0.2,0.2,0.4,0.6,0.6,0.8v28.2c0,8.3-4.5,15.8-11.8,19.8l-22.6,12.3l-3.9-0.3l-1.6,3.4l-48,26.2
	C134.8,400.4,119.5,426.3,119.5,454.5z M494.9,473.6H136.5v-19.1c0-21.9,12-42.1,31.2-52.6l76.1-41.5c12.7-7,20.7-20.3,20.7-34.8
	v-34.3v0l-1.7-2l-0.3-0.4c0,0-0.5-0.7-1.4-1.8c-0.1-0.1-0.1-0.1-0.2-0.2c-0.5-0.6-1-1.3-1.6-2.1c0,0,0,0,0,0
	c-1.3-1.8-2.9-4.1-4.6-6.8c0-0.1-0.1-0.1-0.1-0.2c-0.8-1.3-1.7-2.7-2.6-4.2c-0.1-0.1-0.1-0.2-0.2-0.3c-1.9-3.2-4-6.9-6-10.9
	c0,0,0,0,0,0c-1.1-2.2-2.2-4.5-3.2-6.8l0,0c-0.1-0.3-0.3-0.7-0.4-1l0,0c-0.5-1.1-0.9-2.2-1.4-3.3c-0.2-0.4-0.3-0.9-0.5-1.3
	c-0.4-1.1-0.9-2.2-1.4-3.5c-0.9-2.3-1.7-4.7-2.5-7.2l-0.5-1.5c-0.1-0.2-0.1-0.3-0.2-0.5c-0.8-2.7-1.6-5.5-2.2-8.3l-0.8-3.4l-2.9-1.9
	c-4.9-3.2-7.9-8.5-7.9-14.3v-34.1c0-4.8,2-9.3,5.7-12.6l2.8-2.5v-53.1v-3l-0.2-0.2c-0.3-6.2,0.1-25,13.8-40.8
	c14.1-16.1,38.3-24.3,71.7-24.3c33.3,0,57.4,8.1,71.6,24.1c16.6,18.8,13.9,42.8,13.8,43l-0.1,54.3l2.8,2.5c3.7,3.3,5.7,7.8,5.7,12.6
	v34.1c0,7.4-4.9,14-12.1,16.2l-4.2,1.3l-1.4,4.2c-5.7,17.8-13.8,34.2-24.2,48.8c-2.5,3.6-5,6.8-7.1,9.2l-2.1,2.4v35.2
	c0,15.1,8.4,28.7,21.9,35.4l81.5,40.8c20.4,10.2,33.1,30.7,33.1,53.6V473.6z"/>
</svg>
