<?xml version="1.0" encoding="utf-8"?>
<!-- Generator: Adobe Illustrator 19.2.0, SVG Export Plug-In . SVG Version: 6.00 Build 0)  -->
<svg version="1.1" id="Capa_1" xmlns="http://www.w3.org/2000/svg" xmlns:xlink="http://www.w3.org/1999/xlink" x="0px" y="0px"
	 viewBox="0 0 512 512" style="enable-background:new 0 0 512 512;" xml:space="preserve">
<g>
	<path d="M355.2,38.8L178.5,215.5c-1.4,1.4-2.4,3.2-2.9,5.1l-15.2,58.4c-1,3.8,0.1,7.9,2.9,10.7c2.1,2.1,5,3.3,7.9,3.3
		c0.9,0,1.9-0.1,2.8-0.4l58.4-15.2c1.9-0.5,3.7-1.5,5.1-2.9L414.1,97.8c0,0,0,0,0,0c0,0,0,0,0,0l35.6-35.6c4.4-4.3,4.4-11.4,0-15.7
		L406.5,3.3c-2.1-2.1-4.9-3.3-7.9-3.3c-3,0-5.8,1.2-7.9,3.3L355.2,38.8C355.2,38.8,355.2,38.8,355.2,38.8
		C355.2,38.8,355.2,38.8,355.2,38.8z M223.9,256.5l-37.1,9.6l9.6-37.1L363.1,62.5l27.5,27.5L223.9,256.5z M398.6,26.9l27.5,27.5
		l-19.8,19.8l-27.5-27.5L398.6,26.9z"/>
	<path d="M441.8,120.7c-6.1,0-11.1,5-11.1,11.1v357.9H81.3V63.9h206.2c6.1,0,11.1-5,11.1-11.1s-5-11.1-11.1-11.1H70.2
		c-6.1,0-11.1,5-11.1,11.1v448.1c0,6.1,5,11.1,11.1,11.1h371.7c6.1,0,11.1-5,11.1-11.1v-369C453,125.7,448,120.7,441.8,120.7z"/>
</g>
</svg>
