<?xml version="1.0" encoding="utf-8"?>
<!-- Generator: Adobe Illustrator 19.2.0, SVG Export Plug-In . SVG Version: 6.00 Build 0)  -->
<svg version="1.1"
	 id="Layer_1" xmlns:cc="http://creativecommons.org/ns#" xmlns:dc="http://purl.org/dc/elements/1.1/" xmlns:inkscape="http://www.inkscape.org/namespaces/inkscape" xmlns:rdf="http://www.w3.org/1999/02/22-rdf-syntax-ns#" xmlns:sodipodi="http://sodipodi.sourceforge.net/DTD/sodipodi-0.dtd" xmlns:svg="http://www.w3.org/2000/svg"
	 xmlns="http://www.w3.org/2000/svg" xmlns:xlink="http://www.w3.org/1999/xlink" x="0px" y="0px" viewBox="0 0 512 512"
	 style="enable-background:new 0 0 512 512;" xml:space="preserve">
<g transform="translate(0,-952.36218)">
	<path d="M34.9,993.1c-18.7,0-34.9,14.5-34.9,33.3v282.4c0,18.7,16.2,33.5,34.9,33.5h162.9v58.2h-23.3c-0.4,0-0.7,0-1.1,0
		c-6.4,0.3-11.4,5.8-11.1,12.2c0.3,6.4,5.8,11.4,12.2,11.1h162.9c6.4,0.1,11.7-5,11.8-11.5c0.1-6.4-5-11.7-11.5-11.8
		c-0.1,0-0.2,0-0.3,0h-23.3v-58.2h162.9c18.7,0,34.9-14.7,34.9-33.5v-282.4c0-18.7-16.2-33.3-34.9-33.3H34.9z M34.9,1016.4h442.2
		c7.1,0,11.6,4.7,11.6,10v282.4c0,5.3-4.6,10.2-11.6,10.2H34.9c-7.1,0-11.6-4.8-11.6-10.2v-282.4C23.3,1021,27.8,1016.4,34.9,1016.4
		z M289.5,1068.5c-4.2,0.6-7.8,3.5-9.3,7.5l-69.8,174.5c-3.1,5.6-1.1,12.7,4.6,15.8c5.6,3.1,12.7,1.1,15.8-4.6
		c0.5-0.8,0.8-1.8,1.1-2.7l69.8-174.5c2.5-5.9-0.4-12.7-6.3-15.2C293.5,1068.6,291.5,1068.3,289.5,1068.5z M174.2,1097.6
		c-1.9,0.1-3.7,0.7-5.3,1.6l-104.7,58.2c-5.6,3.1-7.7,10.2-4.5,15.8c1.1,1.9,2.6,3.5,4.5,4.5l104.7,58.2c5.6,3.1,12.7,1.1,15.8-4.5
		c3.1-5.6,1.1-12.7-4.5-15.8l-86.4-48l86.4-48c5.7-2.9,8-9.9,5.1-15.6C183.2,1099.8,178.8,1097.3,174.2,1097.6z M336.4,1097.6
		c-6.4,0.4-11.3,5.9-10.9,12.3c0.3,4.1,2.7,7.8,6.4,9.7l86.4,48l-86.4,48c-5.6,3.1-7.7,10.2-4.5,15.8c3.1,5.6,10.2,7.7,15.8,4.5
		l104.7-58.2c5.6-3.1,7.7-10.2,4.5-15.8c-1.1-1.9-2.6-3.5-4.5-4.5l-104.7-58.2C341.1,1098,338.7,1097.5,336.4,1097.6z M221.1,1342.2
		h69.8v58.2h-69.8V1342.2z"/>
</g>
</svg>
