<?xml version="1.0" encoding="utf-8"?>
<!-- Generator: Adobe Illustrator 19.2.0, SVG Export Plug-In . SVG Version: 6.00 Build 0)  -->
<svg version="1.1" id="Capa_1" xmlns="http://www.w3.org/2000/svg" xmlns:xlink="http://www.w3.org/1999/xlink" x="0px" y="0px"
	 viewBox="0 0 512 512" style="enable-background:new 0 0 512 512;" xml:space="preserve">
<g>
	<path d="M194.2,247.2h70.6v-35.3h35.3v-70.6h-35.3v-35.3h-70.6v35.3h-35.3v70.6h35.3V247.2z M176.6,194.2v-35.3h35.3v-35.3h35.3
		v35.3h35.3v35.3h-35.3v35.3h-35.3v-35.3H176.6z"/>
	<path d="M185.4,317.8c-4.9,0-8.8,3.9-8.8,8.8c0,4.9,4,8.8,8.8,8.8h88.3c4.9,0,8.8-3.9,8.8-8.8c0-4.9-4-8.8-8.8-8.8H185.4z"/>
	<path d="M309,353.1H150.1c-4.9,0-8.8,3.9-8.8,8.8c0,4.9,4,8.8,8.8,8.8H309c4.9,0,8.8-3.9,8.8-8.8C317.8,357,313.8,353.1,309,353.1z
		"/>
	<path d="M309,388.4H150.1c-4.9,0-8.8,3.9-8.8,8.8c0,4.9,4,8.8,8.8,8.8H309c4.9,0,8.8-3.9,8.8-8.8
		C317.8,392.4,313.8,388.4,309,388.4z"/>
	<path d="M423.7,0h-17.7H35.3v512h388.4v-53h53v-88.3v-17.7v-70.6v-17.7v-70.6v-17.7v-70.6V88.3V0H423.7z M406.1,494.3H53V17.7
		h353.1v70.6v17.7v70.6v17.7v70.6v17.7v70.6v17.7V459V494.3z M459,441.4h-35.3v-70.6H459V441.4z M459,353.1h-35.3v-70.6H459V353.1z
		 M459,264.8h-35.3v-70.6H459V264.8z M459,176.6h-35.3v-70.6H459V176.6z M423.7,88.3V17.7H459v70.6H423.7z"/>
</g>
</svg>
