<?xml version="1.0" encoding="utf-8"?>
<!-- Generator: Adobe Illustrator 19.2.0, SVG Export Plug-In . SVG Version: 6.00 Build 0)  -->
<svg version="1.1" id="Layer_1" xmlns="http://www.w3.org/2000/svg" xmlns:xlink="http://www.w3.org/1999/xlink" x="0px" y="0px"
	 viewBox="0 0 512 512" style="enable-background:new 0 0 512 512;" xml:space="preserve">
<style type="text/css">
	.st0{stroke:#000000;stroke-width:6;stroke-miterlimit:10;}
</style>
<path class="st0" d="M324.7,509H187.3c-14.6,0-26-11.4-26-26V350.7H29c-14.6,0-26-11.4-26-26V187.3c0-14.6,11.4-26,26-26h132.4V29
	c0-14.6,11.4-26,26-26h137.4c14.6,0,26,11.4,26,26v132.3H483c14.6,0,26,11.4,26,26v137.4c0,14.6-11.4,26-26,26H350.7V483
	C350.7,496.9,339.3,509,324.7,509z M29,170.2c-9.5,0-16.5,7.6-16.5,16.5v137.4c0,9.5,7.6,16.5,16.5,16.5h141.2v141.2
	c0,9.5,7.6,16.5,16.5,16.5h137.4c9.5,0,16.5-7.6,16.5-16.5V341.2h141.2c9.5,0,16.5-7.6,16.5-16.5V187.3c0-9.5-7.6-16.5-16.5-16.5
	H341.2V29c0-9.5-7.6-16.5-16.5-16.5H187.3c-9.5,0-16.5,7.6-16.5,16.5v141.2H29z"/>
</svg>
